[2024-12-22 21:09:13] å¤„ç†è¾“å‡ºé”™è¯¯: 'gbk' codec can't decode byte 0xa2 in position 331: illegal multibyte sequence
[2024-12-22 21:09:16] ffmpeg version 2024-06-24-git-6ec22731ae-full_build-www.gyan.dev Copyright (c) 2000-2024 the FFmpeg developers
[2024-12-22 21:09:16] built with gcc 13.2.0 (Rev5, Built by MSYS2 project)
[2024-12-22 21:09:16] configuration: --enable-gpl --enable-version3 --enable-static --disable-w32threads --disable-autodetect --enable-fontconfig --enable-iconv --enable-gnutls --enable-libxml2 --enable-gmp --enable-bzlib --enable-lzma --enable-libsnappy --enable-zlib --enable-librist --enable-libsrt --enable-libssh --enable-libzmq --enable-avisynth --enable-libbluray --enable-libcaca --enable-sdl2 --enable-libaribb24 --enable-libaribcaption --enable-libdav1d --enable-libdavs2 --enable-libopenjpeg --enable-libquirc --enable-libuavs3d --enable-libxevd --enable-libzvbi --enable-libqrencode --enable-librav1e --enable-libsvtav1 --enable-libwebp --enable-libx264 --enable-libx265 --enable-libxavs2 --enable-libxeve --enable-libxvid --enable-libaom --enable-libjxl --enable-libvpx --enable-mediafoundation --enable-libass --enable-frei0r --enable-libfreetype --enable-libfribidi --enable-libharfbuzz --enable-liblensfun --enable-libvidstab --enable-libvmaf --enable-libzimg --enable-amf --enable-cuda-llvm --enable-cuvid --enable-dxva2 --enable-d3d11va --enable-d3d12va --enable-ffnvcodec --enable-libvpl --enable-nvdec --enable-nvenc --enable-vaapi --enable-libshaderc --enable-vulkan --enable-libplacebo --enable-opencl --enable-libcdio --enable-libgme --enable-libmodplug --enable-libopenmpt --enable-libopencore-amrwb --enable-libmp3lame --enable-libshine --enable-libtheora --enable-libtwolame --enable-libvo-amrwbenc --enable-libcodec2 --enable-libilbc --enable-libgsm --enable-libopencore-amrnb --enable-libopus --enable-libspeex --enable-libvorbis --enable-ladspa --enable-libbs2b --enable-libflite --enable-libmysofa --enable-librubberband --enable-libsoxr --enable-chromaprint
[2024-12-22 21:09:16] libavutil      59. 25.100 / 59. 25.100
[2024-12-22 21:09:16] libavcodec     61.  8.100 / 61.  8.100
[2024-12-22 21:09:16] libavformat    61.  4.100 / 61.  4.100
[2024-12-22 21:09:16] libavdevice    61.  2.100 / 61.  2.100
[2024-12-22 21:09:16] libavfilter    10.  2.102 / 10.  2.102
[2024-12-22 21:09:16] libswscale      8.  2.100 /  8.  2.100
[2024-12-22 21:09:16] libswresample   5.  2.100 /  5.  2.100
[2024-12-22 21:09:16] libpostproc    58.  2.100 / 58.  2.100
[2024-12-22 21:09:16] Input #0, mov,mp4,m4a,3gp,3g2,mj2, from 'C:\computer\3\itproject\manyaitools_modules\TANGO\outputs/tmpvideo\save_video_fps.mp4':
[2024-12-22 21:09:16] Metadata:
[2024-12-22 21:09:16] major_brand     : isom
[2024-12-22 21:09:16] minor_version   : 512
[2024-12-22 21:09:16] compatible_brands: isomiso2mp41
[2024-12-22 21:09:16] encoder         : Lavf58.76.100
[2024-12-22 21:09:16] Duration: 00:00:10.00, start: 0.000000, bitrate: 4877 kb/s
[2024-12-22 21:09:16] Stream #0:0[0x1](und): Video: mpeg4 (Simple Profile) (mp4v / 0x7634706D), yuv420p, 720x1280 [SAR 1:1 DAR 9:16], 4875 kb/s, 30 fps, 30 tbr, 15360 tbn (default)
[2024-12-22 21:09:16] Metadata:
[2024-12-22 21:09:16] handler_name    : VideoHandler
[2024-12-22 21:09:16] vendor_id       : [0][0][0][0]
[2024-12-22 21:09:16] Stream mapping:
[2024-12-22 21:09:16] Stream #0:0 -> #0:0 (mpeg4 (native) -> h264 (libx264))
[2024-12-22 21:09:16] Press [q] to stop, [?] for help
[2024-12-22 21:09:17] [libx264 @ 000001fde2d8d2c0] using SAR=1/1
[2024-12-22 21:09:17] [libx264 @ 000001fde2d8d2c0] using cpu capabilities: MMX2 SSE2Fast SSSE3 SSE4.2 AVX FMA3 BMI2 AVX2
[2024-12-22 21:09:17] [libx264 @ 000001fde2d8d2c0] profile High, level 3.1, 4:2:0, 8-bit
[2024-12-22 21:09:17] [libx264 @ 000001fde2d8d2c0] 264 - core 164 r3191 4613ac3 - H.264/MPEG-4 AVC codec - Copyleft 2003-2024 - http://www.videolan.org/x264.html - options: cabac=1 ref=3 deblock=1:0:0 analyse=0x3:0x113 me=hex subme=7 psy=1 psy_rd=1.00:0.00 mixed_ref=1 me_range=16 chroma_me=1 trellis=1 8x8dct=1 cqm=0 deadzone=21,11 fast_pskip=1 chroma_qp_offset=-2 threads=24 lookahead_threads=4 sliced_threads=0 nr=0 decimate=1 interlaced=0 bluray_compat=0 constrained_intra=0 bframes=3 b_pyramid=2 b_adapt=1 b_bias=0 direct=1 weightb=1 open_gop=0 weightp=2 keyint=250 keyint_min=25 scenecut=40 intra_refresh=0 rc_lookahead=40 rc=crf mbtree=1 crf=23.0 qcomp=0.60 qpmin=0 qpmax=69 qpstep=4 ip_ratio=1.40 aq=1:1.00
[2024-12-22 21:09:17] Output #0, mp4, to 'C:\computer\3\itproject\manyaitools_modules\TANGO\outputs/tmpvideo\save_video.mp4':
[2024-12-22 21:09:17] Metadata:
[2024-12-22 21:09:17] major_brand     : isom
[2024-12-22 21:09:17] minor_version   : 512
[2024-12-22 21:09:17] compatible_brands: isomiso2mp41
[2024-12-22 21:09:17] encoder         : Lavf61.4.100
[2024-12-22 21:09:17] Stream #0:0(und): Video: h264 (avc1 / 0x31637661), yuv420p(progressive), 720x1280 [SAR 1:1 DAR 9:16], q=2-31, 30 fps, 15360 tbn (default)
[2024-12-22 21:09:17] Metadata:
[2024-12-22 21:09:17] handler_name    : VideoHandler
[2024-12-22 21:09:17] vendor_id       : [0][0][0][0]
[2024-12-22 21:09:17] encoder         : Lavc61.8.100 libx264
[2024-12-22 21:09:17] Side data:
[2024-12-22 21:09:17] cpb: bitrate max/min/avg: 0/0/0 buffer size: 0 vbv_delay: N/A
[2024-12-22 21:09:17] frame=    0 fps=0.0 q=0.0 size=       0KiB time=N/A bitrate=N/A speed=N/A
[2024-12-22 21:09:18] frame=    0 fps=0.0 q=0.0 size=       0KiB time=N/A bitrate=N/A speed=N/A
[2024-12-22 21:09:18] frame=    0 fps=0.0 q=0.0 size=       0KiB time=N/A bitrate=N/A speed=N/A
[2024-12-22 21:09:19] frame=    0 fps=0.0 q=0.0 size=       0KiB time=N/A bitrate=N/A speed=N/A
[2024-12-22 21:09:20] frame=    0 fps=0.0 q=0.0 size=       0KiB time=N/A bitrate=N/A speed=N/A
[2024-12-22 21:09:20] frame=    0 fps=0.0 q=0.0 size=       0KiB time=N/A bitrate=N/A speed=N/A
[2024-12-22 21:09:21] frame=    0 fps=0.0 q=0.0 size=       0KiB time=N/A bitrate=N/A speed=N/A
[2024-12-22 21:09:21] frame=    0 fps=0.0 q=0.0 size=       0KiB time=N/A bitrate=N/A speed=N/A
[2024-12-22 21:09:22] frame=    0 fps=0.0 q=0.0 size=       0KiB time=N/A bitrate=N/A speed=N/A
[2024-12-22 21:09:22] frame=    0 fps=0.0 q=0.0 size=       0KiB time=N/A bitrate=N/A speed=N/A
[2024-12-22 21:09:23] frame=    8 fps=1.4 q=29.0 size=       0KiB time=00:00:00.20 bitrate=   1.9kbits/s speed=0.0352x
[2024-12-22 21:09:23] frame=   15 fps=2.4 q=29.0 size=       0KiB time=00:00:00.43 bitrate=   0.9kbits/s speed=0.0701x
[2024-12-22 21:09:24] frame=   22 fps=3.3 q=29.0 size=       0KiB time=00:00:00.66 bitrate=   0.6kbits/s speed=0.0994x
[2024-12-22 21:09:24] frame=   29 fps=4.0 q=29.0 size=     256KiB time=00:00:00.90 bitrate=2330.6kbits/s speed=0.125x
[2024-12-22 21:09:25] frame=   35 fps=4.5 q=29.0 size=     256KiB time=00:00:01.10 bitrate=1906.9kbits/s speed=0.142x
[2024-12-22 21:09:25] frame=   42 fps=5.1 q=29.0 size=     256KiB time=00:00:01.33 bitrate=1573.2kbits/s speed=0.162x
[2024-12-22 21:09:26] frame=   49 fps=5.6 q=29.0 size=     512KiB time=00:00:01.56 bitrate=2677.5kbits/s speed=0.179x
[2024-12-22 21:09:26] frame=   56 fps=6.0 q=29.0 size=     512KiB time=00:00:01.80 bitrate=2330.4kbits/s speed=0.194x
[2024-12-22 21:09:27] frame=   64 fps=6.5 q=29.0 size=     512KiB time=00:00:02.06 bitrate=2029.7kbits/s speed=0.211x
[2024-12-22 21:09:27] frame=   71 fps=6.9 q=29.0 size=     768KiB time=00:00:02.30 bitrate=2735.6kbits/s speed=0.223x
[2024-12-22 21:09:28] frame=   78 fps=7.2 q=29.0 size=     768KiB time=00:00:02.53 bitrate=2483.6kbits/s speed=0.234x
[2024-12-22 21:09:28] frame=   87 fps=7.7 q=29.0 size=     768KiB time=00:00:02.83 bitrate=2220.6kbits/s speed=0.25x
[2024-12-22 21:09:29] frame=   94 fps=7.9 q=29.0 size=     768KiB time=00:00:03.06 bitrate=2051.7kbits/s speed=0.258x
[2024-12-22 21:09:29] frame=  100 fps=8.1 q=29.0 size=    1024KiB time=00:00:03.26 bitrate=2568.1kbits/s speed=0.264x
[2024-12-22 21:09:30] frame=  107 fps=8.3 q=29.0 size=    1024KiB time=00:00:03.50 bitrate=2396.9kbits/s speed=0.271x
[2024-12-22 21:09:30] frame=  114 fps=8.5 q=29.0 size=    1024KiB time=00:00:03.73 bitrate=2247.1kbits/s speed=0.278x
[2024-12-22 21:09:31] frame=  123 fps=8.8 q=29.0 size=    1280KiB time=00:00:04.03 bitrate=2599.9kbits/s speed=0.29x
[2024-12-22 21:09:31] frame=  131 fps=9.1 q=29.0 size=    1280KiB time=00:00:04.30 bitrate=2438.6kbits/s speed=0.298x
[2024-12-22 21:09:32] frame=  139 fps=9.3 q=29.0 size=    1280KiB time=00:00:04.56 bitrate=2296.2kbits/s speed=0.305x
[2024-12-22 21:09:32] frame=  146 fps=9.4 q=29.0 size=    1536KiB time=00:00:04.80 bitrate=2621.5kbits/s speed=0.31x
[2024-12-22 21:09:33] frame=  154 fps=9.6 q=29.0 size=    1536KiB time=00:00:05.06 bitrate=2483.5kbits/s speed=0.317x
[2024-12-22 21:09:33] frame=  162 fps=9.8 q=29.0 size=    1536KiB time=00:00:05.33 bitrate=2359.4kbits/s speed=0.323x
[2024-12-22 21:09:34] frame=  171 fps= 10 q=29.0 size=    1792KiB time=00:00:05.63 bitrate=2606.0kbits/s speed=0.331x
[2024-12-22 21:09:34] frame=  178 fps= 10 q=29.0 size=    1792KiB time=00:00:05.86 bitrate=2502.3kbits/s speed=0.334x
[2024-12-22 21:09:35] frame=  186 fps= 10 q=29.0 size=    1792KiB time=00:00:06.13 bitrate=2393.6kbits/s speed=0.34x
[2024-12-22 21:09:36] frame=  194 fps= 10 q=29.0 size=    2048KiB time=00:00:06.40 bitrate=2621.5kbits/s speed=0.345x
[2024-12-22 21:09:36] frame=  203 fps= 11 q=29.0 size=    2048KiB time=00:00:06.70 bitrate=2504.1kbits/s speed=0.351x
[2024-12-22 21:09:37] frame=  212 fps= 11 q=29.0 size=    2048KiB time=00:00:07.00 bitrate=2396.8kbits/s speed=0.357x
[2024-12-22 21:09:37] frame=  219 fps= 11 q=29.0 size=    2048KiB time=00:00:07.23 bitrate=2319.5kbits/s speed=0.36x
[2024-12-22 21:09:37] frame=  227 fps= 11 q=29.0 size=    2304KiB time=00:00:07.50 bitrate=2516.6kbits/s speed=0.364x
[2024-12-22 21:09:37] [out#0/mp4 @ 000001fde2d89580] video:2965KiB audio:0KiB subtitle:0KiB other streams:0KiB global headers:0KiB muxing overhead: 0.129110%
[2024-12-22 21:09:37] frame=  299 fps= 14 q=-1.0 Lsize=    2969KiB time=00:00:09.90 bitrate=2456.6kbits/s speed=0.472x
[2024-12-22 21:09:37] [libx264 @ 000001fde2d8d2c0] frame I:2     Avg QP:21.41  size: 48036
[2024-12-22 21:09:37] [libx264 @ 000001fde2d8d2c0] frame P:209   Avg QP:23.48  size: 13025
[2024-12-22 21:09:37] [libx264 @ 000001fde2d8d2c0] frame B:88    Avg QP:24.80  size:  2469
[2024-12-22 21:09:37] [libx264 @ 000001fde2d8d2c0] consecutive B-frames: 45.5% 44.8%  3.0%  6.7%
[2024-12-22 21:09:37] [libx264 @ 000001fde2d8d2c0] mb I  I16..4: 19.4% 75.3%  5.3%
[2024-12-22 21:09:37] [libx264 @ 000001fde2d8d2c0] mb P  I16..4:  3.4% 11.5%  0.2%  P16..4: 50.4%  9.4%  3.5%  0.0%  0.0%    skip:21.6%
[2024-12-22 21:09:37] [libx264 @ 000001fde2d8d2c0] mb B  I16..4:  0.6%  1.6%  0.0%  B16..8: 30.2%  1.2%  0.1%  direct: 0.7%  skip:65.6%  L0:39.6% L1:57.2% BI: 3.2%
[2024-12-22 21:09:37] [libx264 @ 000001fde2d8d2c0] 8x8 transform intra:76.2% inter:85.5%
[2024-12-22 21:09:37] [libx264 @ 000001fde2d8d2c0] coded y,uvDC,uvAC intra: 43.4% 70.5% 12.9% inter: 14.2% 21.4% 0.3%
[2024-12-22 21:09:37] [libx264 @ 000001fde2d8d2c0] i16 v,h,dc,p: 36% 17% 21% 26%
[2024-12-22 21:09:37] [libx264 @ 000001fde2d8d2c0] i8 v,h,dc,ddl,ddr,vr,hd,vl,hu: 30% 18% 33%  3%  3%  4%  3%  4%  2%
[2024-12-22 21:09:37] [libx264 @ 000001fde2d8d2c0] i4 v,h,dc,ddl,ddr,vr,hd,vl,hu: 29% 16% 10%  5% 11% 11%  8%  7%  4%
[2024-12-22 21:09:37] [libx264 @ 000001fde2d8d2c0] i8c dc,h,v,p: 43% 19% 30%  8%
[2024-12-22 21:09:37] [libx264 @ 000001fde2d8d2c0] Weighted P-Frames: Y:0.0% UV:0.0%
[2024-12-22 21:09:37] [libx264 @ 000001fde2d8d2c0] ref P L0: 76.1% 13.5%  8.1%  2.3%
[2024-12-22 21:09:37] [libx264 @ 000001fde2d8d2c0] ref B L0: 87.1% 12.2%  0.7%
[2024-12-22 21:09:37] [libx264 @ 000001fde2d8d2c0] ref B L1: 98.6%  1.4%
[2024-12-22 21:09:37] [libx264 @ 000001fde2d8d2c0] kb/s:2436.50
[2024-12-22 21:09:45] C:\ProgramData\miniconda3\envs\tango\lib\site-packages\timm\models\layers\__init__.py:48: FutureWarning: Importing from timm.models.layers is deprecated, please import via timm.layers
[2024-12-22 21:09:45] warnings.warn(f"Importing from {__name__} is deprecated, please import via timm.layers", FutureWarning)
[2024-12-22 21:09:45] [92m12-22 21:09:45[0m Load checkpoint from C:\computer\3\itproject\manyaitools_modules\TANGO\SMPLer-X\main\../pretrained_models\smpler_x_s32.pth.tar
[2024-12-22 21:09:45] [92m12-22 21:09:45[0m Creating graph...
[2024-12-22 21:09:47] 0%|          | 0/2 [00:00<?, ?it/s]
[2024-12-22 21:09:47] 0%|          | 0/2 [00:00<?, ?it/s]
[2024-12-22 21:09:47] Traceback (most recent call last):
[2024-12-22 21:09:47] File "C:\computer\3\itproject\manyaitools_modules\TANGO\SMPLer-X\app.py", line 148, in <module>
[2024-12-22 21:09:47] infer(os.path.join(video_folder, video_input), 0.5, False, False, inferer, OUT_FOLDER)
[2024-12-22 21:09:47] File "C:\computer\3\itproject\manyaitools_modules\TANGO\SMPLer-X\app.py", line 122, in infer
[2024-12-22 21:09:47] npz_to_npz(os.path.join(OUT_FOLDER, video_name.replace(".mp4", ".npz")), os.path.join(OUT_FOLDER, video_name.replace(".mp4", ".npz")))
[2024-12-22 21:09:47] File "C:\computer\3\itproject\manyaitools_modules\TANGO\SMPLer-X\app.py", line 43, in npz_to_npz
[2024-12-22 21:09:47] n = pkl_example["expression"].shape[0]  # Assuming this is the batch size
[2024-12-22 21:09:47] File "C:\ProgramData\miniconda3\envs\tango\lib\site-packages\numpy\lib\npyio.py", line 260, in __getitem__
[2024-12-22 21:09:47] raise KeyError("%s is not a file in the archive" % key)
[2024-12-22 21:09:47] KeyError: 'expression is not a file in the archive'
[2024-12-22 21:09:47] [mov,mp4,m4a,3gp,3g2,mj2 @ 00000178da8be880] moov atom not found
[2024-12-22 21:09:50] Traceback (most recent call last):
[2024-12-22 21:09:50] File "C:\computer\3\itproject\manyaitools_modules\TANGO\create_graph.py", line 488, in <module>
[2024-12-22 21:09:50] graph = create_graph(json_path, smplx_model)
[2024-12-22 21:09:50] File "C:\computer\3\itproject\manyaitools_modules\TANGO\create_graph.py", line 125, in create_graph
[2024-12-22 21:09:50] data_meta = json.load(open(json_path, "r"))
[2024-12-22 21:09:50] FileNotFoundError: [Errno 2] No such file or directory: 'C:\\computer\\3\\itproject\\manyaitools_modules\\TANGO\\outputs/save_video.json'
